<svg width="572" height="360" viewBox="0 0 572 360" fill="none" xmlns="http://www.w3.org/2000/svg">
<g clip-path="url(#clip0)">
<path d="M367.016 160.082L343.647 167.815L367.016 175.605L390.385 167.815L367.016 160.082Z" fill="#646B80"/>
<path d="M343.647 167.815V298.941H367.016V175.605L343.647 167.815Z" fill="#515666"/>
<path d="M390.384 167.815V298.941H367.015V175.605L390.384 167.815Z" fill="#323546"/>
<path d="M273.258 137.561L249.889 145.35L273.258 153.14L296.683 145.35L273.258 137.561Z" fill="#646B80"/>
<path d="M249.889 145.35V276.475H273.258V153.14L249.889 145.35Z" fill="#5A6175"/>
<path d="M296.684 145.35V276.475H273.259V153.14L296.684 145.35Z" fill="#323546"/>
<path d="M140.044 150.713L113.288 159.575L140.044 168.494L166.8 159.575L140.044 150.713Z" fill="#646B80"/>
<path d="M113.289 159.575V309.497H140.044V168.493L113.289 159.575Z" fill="#646B80"/>
<path d="M166.8 159.575V309.497H140.044V168.493L166.8 159.575Z" fill="#323546"/>
<path d="M206.37 86.646L152.802 104.483L206.37 122.264L259.937 104.483L206.37 86.646Z" fill="#646B80"/>
<path d="M152.802 104.483V404.723H206.369V122.264L152.802 104.483Z" fill="#646B80"/>
<path d="M259.939 104.483V404.723H206.371V122.264L259.939 104.483Z" fill="#323546"/>
<path d="M417.649 77.5576L379.943 90.2017L417.649 102.846L455.412 90.2017L417.649 77.5576Z" fill="#646B80"/>
<path d="M379.943 90.2017V303.57H417.649V102.846L379.943 90.2017Z" fill="#646B80"/>
<path d="M455.412 90.2017V303.57H417.649V102.846L455.412 90.2017Z" fill="#323546"/>
<path d="M462.918 208.401L409.294 226.182L462.918 244.019L516.542 226.182L462.918 208.401Z" fill="#646B80"/>
<path d="M409.294 226.182V526.647H462.918V244.019L409.294 226.182Z" fill="#5B6278"/>
<path d="M516.542 226.182V526.647H462.918V244.019L516.542 226.182Z" fill="#323546"/>
<path d="M93.2505 195.813L55.2056 208.458L93.2505 221.102L131.296 208.458L93.2505 195.813Z" fill="#646B80"/>
<path d="M55.2056 208.458V421.656H93.2505V221.102L55.2056 208.458Z" fill="#646B80"/>
<path d="M131.296 208.458V421.656H93.251V221.102L131.296 208.458Z" fill="#323546"/>
<path d="M144.277 240.569L124.126 247.23L144.277 253.947L164.485 247.23L144.277 240.569Z" fill="#646B80"/>
<path d="M124.126 247.229V360.292H144.278V253.947L124.126 247.229Z" fill="#646B80"/>
<path d="M164.486 247.229V360.292H144.278V253.947L164.486 247.229Z" fill="#323546"/>
<path d="M20.1521 239.051L0.000732422 245.768L20.1521 252.486L40.36 245.768L20.1521 239.051Z" fill="#646B80"/>
<path d="M0.000732422 245.769V358.831H20.1521V252.486L0.000732422 245.769Z" fill="#646B80"/>
<path d="M40.3605 245.769V358.831H20.1526V252.486L40.3605 245.769Z" fill="#323546"/>
<path d="M317.343 185.258L249.889 207.667L317.343 230.133L384.853 207.667L317.343 185.258Z" fill="#646B80"/>
<path d="M249.889 207.667V585.859H317.343V230.133L249.889 207.667Z" fill="#646B80"/>
<path d="M384.852 207.667V585.859H317.342V230.133L384.852 207.667Z" fill="#323546"/>
<path d="M345.113 142.471L330.211 138.181C330.607 138.238 330.945 138.294 331.284 138.35C331.623 138.407 332.018 138.463 332.356 138.576L347.258 142.866C346.92 142.81 346.524 142.697 346.186 142.64C345.847 142.64 345.565 142.528 345.113 142.471Z" fill="#222531"/>
<path d="M347.26 142.866L332.358 138.576C332.697 138.633 333.035 138.746 333.374 138.858L348.276 143.148C347.937 143.035 347.598 142.923 347.26 142.866Z" fill="#323546"/>
<path d="M327.842 210.602L312.94 206.312C312.94 202.53 312.94 198.692 312.94 194.854L327.842 199.143C327.898 202.982 327.898 206.764 327.842 210.602Z" fill="#323546"/>
<path d="M345.002 166.179C345.002 166.01 345.002 165.897 345.002 165.727C345.002 165.615 345.002 165.502 345.002 165.332C345.002 165.276 345.002 165.219 345.002 165.107C345.002 164.824 344.946 164.599 344.946 164.316C344.946 164.147 344.946 164.034 344.889 163.921C344.833 163.583 344.776 163.3 344.72 163.018C344.72 162.962 344.72 162.849 344.663 162.792C344.607 162.397 344.494 162.058 344.381 161.663C344.381 161.55 344.325 161.494 344.268 161.381C344.212 161.099 344.099 160.873 343.986 160.591C343.929 160.478 343.873 160.365 343.817 160.196C343.704 159.97 343.647 159.744 343.534 159.575C343.478 159.462 343.421 159.349 343.365 159.236C343.252 159.067 343.139 158.841 343.026 158.672C342.97 158.559 342.913 158.446 342.801 158.333C342.688 158.164 342.518 157.938 342.405 157.769C342.349 157.656 342.293 157.599 342.18 157.486C341.954 157.261 341.728 156.978 341.502 156.753C340.543 155.849 339.47 155.285 338.341 154.946L323.439 150.656C324.568 150.995 325.584 151.559 326.6 152.463C326.826 152.688 327.052 152.914 327.278 153.196C327.334 153.253 327.391 153.366 327.504 153.479C327.616 153.648 327.786 153.817 327.899 154.043C327.955 154.156 328.012 154.269 328.124 154.382C328.237 154.551 328.35 154.777 328.463 154.946C328.52 155.059 328.576 155.172 328.633 155.285C328.745 155.511 328.802 155.68 328.915 155.906C328.971 156.019 329.028 156.132 329.084 156.301C329.197 156.527 329.253 156.809 329.366 157.091C329.423 157.204 329.423 157.261 329.479 157.373C329.592 157.712 329.649 158.107 329.761 158.502C329.761 158.559 329.761 158.672 329.818 158.728C329.874 159.01 329.931 159.349 329.987 159.631C329.987 159.744 329.987 159.914 330.044 160.026C330.044 160.309 330.1 160.534 330.1 160.817C330.1 160.986 330.1 161.212 330.1 161.381C330.1 161.55 330.1 161.663 330.1 161.833C330.1 162.058 330.1 162.284 330.1 162.51C330.1 162.679 330.1 162.792 330.1 162.962C330.1 163.075 330.1 163.187 330.044 163.3C329.987 163.695 329.987 164.091 329.931 164.486C329.931 164.599 329.874 164.768 329.874 164.881C329.818 165.219 329.761 165.615 329.649 165.953C329.649 166.01 329.592 166.123 329.592 166.179C329.479 166.631 329.366 167.026 329.253 167.477C329.141 167.816 329.028 168.211 328.858 168.55C328.745 168.832 328.632 169.058 328.52 169.284C328.463 169.453 328.35 169.622 328.294 169.792C328.237 169.961 328.181 170.074 328.068 170.243C328.012 170.413 327.899 170.582 327.842 170.695C327.786 170.864 327.673 170.977 327.616 171.09C327.504 171.259 327.391 171.429 327.334 171.654C327.278 171.767 327.221 171.88 327.108 171.993C326.996 172.162 326.883 172.332 326.77 172.501C326.713 172.614 326.657 172.727 326.6 172.783C326.318 173.178 326.036 173.574 325.754 173.969C325.697 174.025 325.641 174.082 325.584 174.138C325.302 174.477 324.963 174.815 324.681 175.154C324.625 175.211 324.568 175.267 324.512 175.323C324.23 175.549 324.004 175.831 323.722 176.057L323.665 176.114C323.383 176.339 323.101 176.565 322.762 176.791C322.649 176.847 322.593 176.904 322.48 176.96C322.367 177.017 322.254 177.13 322.085 177.186C321.972 177.243 321.859 177.299 321.746 177.355C321.633 177.412 321.52 177.468 321.351 177.525C321.238 177.581 321.125 177.638 321.012 177.694C320.899 177.751 320.73 177.807 320.617 177.863C320.504 177.92 320.391 177.976 320.278 178.033C320.165 178.089 319.996 178.146 319.883 178.202C319.714 178.259 319.545 178.315 319.375 178.372C317.738 178.823 316.101 179.275 314.464 179.726C311.868 180.404 309.215 181.137 306.618 181.815C306.393 181.871 306.167 181.928 305.885 181.984L320.786 186.274C321.069 186.218 321.294 186.161 321.52 186.105C324.117 185.427 326.77 184.694 329.366 184.016C331.003 183.565 332.64 183.113 334.277 182.661C334.39 182.661 334.446 182.605 334.559 182.549C334.616 182.549 334.729 182.492 334.785 182.492C334.898 182.436 335.067 182.379 335.18 182.323C335.293 182.266 335.406 182.21 335.519 182.153C335.632 182.097 335.801 182.041 335.914 181.984C336.027 181.928 336.14 181.871 336.253 181.815C336.366 181.758 336.535 181.702 336.648 181.645C336.761 181.589 336.874 181.533 336.987 181.476C337.099 181.42 337.212 181.307 337.325 181.25C337.382 181.194 337.438 181.194 337.495 181.137C337.551 181.137 337.551 181.081 337.607 181.081C337.89 180.855 338.228 180.686 338.511 180.404L338.567 180.347C338.849 180.121 339.132 179.896 339.357 179.613C339.414 179.557 339.414 179.557 339.47 179.5L339.527 179.444C339.865 179.105 340.148 178.767 340.43 178.428C340.486 178.372 340.543 178.315 340.599 178.259C340.881 177.863 341.164 177.525 341.446 177.073C341.446 177.073 341.446 177.017 341.502 177.017C341.559 176.96 341.615 176.847 341.672 176.791C341.785 176.622 341.897 176.452 342.01 176.283C342.067 176.17 342.123 176.057 342.236 175.944C342.349 175.775 342.462 175.606 342.518 175.38C342.575 175.323 342.575 175.267 342.631 175.21C342.688 175.154 342.688 175.041 342.744 174.928C342.801 174.759 342.913 174.59 342.97 174.477C343.026 174.307 343.139 174.194 343.196 174.025C343.252 173.856 343.365 173.686 343.421 173.517C343.478 173.461 343.478 173.348 343.534 173.291C343.591 173.122 343.704 172.953 343.76 172.727C343.873 172.388 343.986 172.05 344.099 171.711V171.654C344.212 171.259 344.381 170.808 344.438 170.356C344.438 170.356 344.438 170.356 344.438 170.3C344.438 170.243 344.438 170.187 344.494 170.074C344.607 169.735 344.663 169.34 344.72 169.001C344.72 168.945 344.72 168.888 344.776 168.832C344.776 168.776 344.776 168.663 344.776 168.606C344.833 168.211 344.889 167.816 344.889 167.421C344.889 167.364 344.889 167.252 344.889 167.195C344.889 167.139 344.889 167.082 344.889 167.082C344.889 166.913 344.889 166.8 344.889 166.631C345.002 166.631 345.002 166.405 345.002 166.179Z" fill="#323546"/>
<path d="M312.884 214.61L297.982 210.32C297.982 206.538 297.982 202.756 297.982 198.861L312.884 203.151C312.884 207.046 312.884 210.828 312.884 214.61Z" fill="#323546"/>
<path d="M329.987 94.4917C329.705 94.4352 329.422 94.3224 329.084 94.2659C329.027 94.2659 328.971 94.2659 328.914 94.2095C328.689 94.153 328.463 94.153 328.237 94.0966C328.011 94.0401 327.842 94.0401 327.616 93.9837C327.39 93.9837 327.165 93.9272 326.939 93.9272C326.769 93.9272 326.657 93.8708 326.487 93.8708C326.431 93.8708 326.374 93.8708 326.374 93.8708C325.866 93.8708 325.415 93.8143 324.907 93.8708C324.624 93.8708 324.399 93.8708 324.116 93.9272C324.004 93.9272 323.947 93.9272 323.834 93.9837C323.665 93.9837 323.495 94.0401 323.383 94.0401C323.27 94.0401 323.157 94.0966 323.044 94.0966C322.592 94.153 322.141 94.2095 321.689 94.2659L333.261 97.5962L336.591 98.5558C336.648 98.5558 336.76 98.5559 336.817 98.4994C336.986 98.4994 337.156 98.4429 337.268 98.4429C337.776 98.3865 338.228 98.3301 338.68 98.2736C338.793 98.2736 338.849 98.2736 338.962 98.2172C339.244 98.2172 339.47 98.1607 339.752 98.1607C340.26 98.1607 340.768 98.1607 341.22 98.1607C341.446 98.1607 341.615 98.1607 341.841 98.2172C342.066 98.2172 342.292 98.2736 342.518 98.2736C342.744 98.2736 342.913 98.3301 343.139 98.3865C343.365 98.443 343.59 98.443 343.816 98.4994C344.155 98.5559 344.55 98.6687 344.889 98.7252L329.987 94.4917Z" fill="#646B80"/>
<path d="M341.164 124.126C341.164 124.014 341.164 123.844 341.164 123.731C341.164 123.675 341.164 123.618 341.164 123.562C341.164 123.506 341.164 123.449 341.164 123.393C341.164 123.11 341.107 122.885 341.107 122.602C341.107 122.49 341.107 122.377 341.051 122.32C340.994 121.982 340.938 121.643 340.881 121.304C340.148 117.974 338.228 115.659 335.745 114.926L320.843 110.636C323.327 111.37 325.302 113.627 325.98 117.014C326.036 117.353 326.092 117.692 326.149 118.03C326.149 118.143 326.149 118.256 326.205 118.312C326.205 118.595 326.262 118.82 326.262 119.103C326.262 119.216 326.262 119.328 326.262 119.441C326.262 119.554 326.262 119.724 326.262 119.837C326.262 120.006 326.262 120.175 326.262 120.288C326.262 120.401 326.262 120.57 326.262 120.683C326.262 120.796 326.262 120.965 326.262 121.078C326.205 121.473 326.205 121.925 326.092 122.32C326.092 122.377 326.092 122.49 326.036 122.546C325.98 122.885 325.923 123.223 325.81 123.562C325.81 123.675 325.754 123.731 325.754 123.844C325.641 124.239 325.528 124.578 325.415 124.973C325.415 125.03 325.359 125.086 325.359 125.143C325.246 125.481 325.133 125.82 324.964 126.159C324.907 126.271 324.907 126.328 324.851 126.441C324.681 126.836 324.512 127.231 324.343 127.57C324.343 127.626 324.286 127.683 324.286 127.683C324.06 128.134 323.778 128.586 323.496 129.037C323.383 129.207 323.27 129.376 323.157 129.545C323.101 129.602 323.044 129.715 322.988 129.771C322.819 129.997 322.649 130.223 322.423 130.448C322.198 130.731 321.972 130.956 321.746 131.182C321.69 131.239 321.633 131.295 321.577 131.352C321.351 131.577 321.182 131.747 320.956 131.916C320.899 131.973 320.843 132.029 320.786 132.085C320.504 132.311 320.278 132.481 319.996 132.706C319.94 132.706 319.94 132.763 319.883 132.763C319.601 132.989 319.262 133.158 318.924 133.271C318.867 133.271 318.811 133.327 318.811 133.327C318.472 133.497 318.134 133.609 317.795 133.722C317.625 133.779 317.513 133.835 317.343 133.835C313.731 134.795 310.118 135.754 306.506 136.714C306.449 136.714 306.393 136.77 306.28 136.77C306.223 136.77 306.11 136.77 306.054 136.827L320.956 141.117C321.125 141.06 321.294 141.06 321.407 141.004C325.02 140.044 328.633 139.085 332.245 138.125C332.358 138.069 332.471 138.069 332.584 138.012C332.64 138.012 332.64 137.956 332.697 137.956C333.035 137.843 333.374 137.73 333.713 137.561C333.769 137.561 333.826 137.504 333.826 137.504C334.164 137.335 334.447 137.166 334.785 136.996C334.842 136.996 334.842 136.94 334.898 136.94C334.898 136.94 334.898 136.94 334.955 136.883C335.237 136.714 335.519 136.488 335.745 136.262C335.801 136.206 335.858 136.15 335.914 136.093C336.14 135.924 336.366 135.698 336.535 135.529C336.592 135.472 336.592 135.472 336.648 135.416L336.704 135.359C336.93 135.134 337.156 134.851 337.382 134.626C337.551 134.4 337.777 134.174 337.946 133.948C338.003 133.892 338.059 133.779 338.116 133.722C338.228 133.553 338.341 133.384 338.454 133.214C338.736 132.763 339.019 132.311 339.245 131.86C339.245 131.803 339.301 131.803 339.301 131.803V131.747C339.47 131.352 339.696 131.013 339.809 130.618C339.809 130.561 339.865 130.561 339.865 130.505C339.865 130.448 339.922 130.392 339.922 130.336C340.035 129.997 340.204 129.658 340.261 129.32C340.261 129.263 340.317 129.263 340.317 129.207C340.317 129.207 340.317 129.207 340.317 129.15C340.43 128.755 340.543 128.416 340.656 128.021C340.656 127.965 340.656 127.965 340.712 127.908C340.712 127.852 340.712 127.795 340.769 127.739C340.825 127.4 340.938 127.062 340.994 126.723C340.994 126.667 340.994 126.61 341.051 126.554V126.497C341.107 126.102 341.164 125.651 341.22 125.255C341.22 125.199 341.22 125.199 341.22 125.143C341.22 125.03 341.22 124.973 341.22 124.86C341.22 124.747 341.22 124.578 341.22 124.465C341.164 124.409 341.164 124.296 341.164 124.126Z" fill="#323546"/>
<path d="M328.068 100.87L313.166 96.5802C313.166 92.7419 313.166 88.9599 313.166 85.1216L328.068 89.4115C328.124 93.2499 328.068 97.0318 328.068 100.87Z" fill="#323546"/>
<path d="M328.068 100.87L313.166 96.5802C313.166 92.7419 313.166 88.9599 313.166 85.1216L328.068 89.4115C328.124 93.2499 328.068 97.0318 328.068 100.87Z" fill="#323546"/>
<path d="M328.124 89.4116L313.166 85.1216C316.045 84.3314 318.81 83.5976 321.633 82.8638L336.535 87.1537C333.769 87.8875 330.946 88.6213 328.124 89.4116Z" fill="#646B80"/>
<path d="M321.577 102.62L306.675 98.3304C308.876 97.766 311.021 97.145 313.166 96.5806L328.068 100.871C325.867 101.435 323.722 102.056 321.577 102.62Z" fill="#646B80"/>
<path d="M295.104 193.612L280.202 189.322C283.758 188.363 287.257 187.403 290.87 186.443L305.772 190.733C302.216 191.693 298.66 192.652 295.104 193.612Z" fill="#646B80"/>
<path d="M295.104 207.95L280.202 203.66C280.202 198.862 280.202 194.12 280.258 189.322L295.16 193.612C295.104 198.41 295.104 203.152 295.104 207.95Z" fill="#323546"/>
<path d="M305.772 190.733L290.87 186.443C290.927 163.413 290.983 140.439 291.04 117.296L305.942 121.586C305.885 144.673 305.829 167.703 305.772 190.733Z" fill="#323546"/>
<path d="M321.577 91.1615L306.675 86.8716C306.619 86.8716 306.562 86.8716 306.562 86.8716C306.562 86.8716 306.562 86.8716 306.506 86.8716H306.449C306.449 86.8716 306.449 86.8716 306.393 86.8716C305.377 87.1538 304.304 87.436 303.288 87.7183C301.708 88.1134 300.184 88.565 298.603 88.9601C298.603 88.9601 298.603 88.9601 298.547 88.9601C298.49 88.9601 298.434 89.0166 298.377 89.0166C298.377 89.0166 298.321 89.0166 298.321 89.073L298.264 89.1294C298.264 89.1294 298.264 89.1295 298.264 89.1859C298.264 89.1859 298.264 89.1859 298.264 89.2423V89.2988V89.3552C298.264 89.4117 298.264 89.4117 298.264 89.4681C298.264 89.581 298.264 89.6375 298.264 89.7504C298.264 93.0807 298.264 96.4111 298.264 99.7414C298.264 100.024 298.264 100.249 298.208 100.588L313.11 104.878C313.11 104.539 313.166 104.257 313.166 104.031C313.166 100.701 313.166 97.3706 313.166 94.0403C313.166 93.9274 313.166 93.871 313.166 93.7581C313.166 93.6452 313.166 93.5887 313.223 93.5323C313.223 93.4759 313.279 93.4194 313.336 93.3629C313.392 93.3065 313.449 93.2501 313.561 93.2501C315.142 92.8549 316.722 92.4034 318.247 92.0082C319.263 91.726 320.335 91.4438 321.351 91.1615C321.408 91.1615 321.408 91.1615 321.464 91.1615C321.464 91.1615 321.52 91.1615 321.577 91.1615Z" fill="#323546"/>
<path d="M295.273 124.465L280.371 120.175C280.371 115.264 280.371 110.41 280.428 105.442L295.329 109.732C295.273 114.7 295.273 119.554 295.273 124.465Z" fill="#323546"/>
<path d="M359.678 158.22C360.299 162.284 360.186 166.518 359.226 170.864C358.041 176.283 355.839 181.024 352.622 185.089C350.025 188.306 347.034 190.451 343.986 192.37C341.728 193.838 339.414 195.023 337.156 196.321C336.93 196.434 336.704 196.604 336.422 196.717C336.422 200.555 336.422 204.393 336.422 208.288C333.6 209.078 330.777 209.812 327.955 210.546C327.955 206.764 327.955 202.926 327.955 199.087C325.753 199.652 323.665 200.273 321.464 200.837C321.464 204.676 321.464 208.457 321.464 212.296C318.641 213.03 315.819 213.82 312.997 214.554C312.997 210.772 312.997 206.99 312.997 203.095C307.013 204.676 301.143 206.256 295.159 207.893C295.159 203.095 295.159 198.354 295.216 193.556C298.772 192.596 302.272 191.636 305.884 190.677C305.941 167.647 305.997 144.673 306.054 121.53C302.498 122.489 298.941 123.449 295.385 124.409C295.385 119.498 295.385 114.643 295.442 109.676C301.312 108.095 307.239 106.515 313.222 104.934C313.222 104.596 313.279 104.314 313.279 104.088C313.279 100.757 313.279 97.4271 313.279 94.0968C313.279 93.7016 313.279 93.363 313.674 93.2501C315.254 92.8549 316.835 92.4034 318.359 92.0082C319.375 91.726 320.447 91.4438 321.464 91.1615C321.52 91.1615 321.576 91.1615 321.689 91.1615C321.689 94.9435 321.689 98.7254 321.689 102.62C323.891 102.056 326.036 101.435 328.181 100.87C328.181 97.032 328.181 93.25 328.181 89.4117C331.059 88.6214 333.825 87.8876 336.648 87.1538C336.648 90.9922 336.648 94.7741 336.648 98.556C337.777 98.4431 338.849 98.2738 339.865 98.2174C344.268 98.1045 348.163 99.2898 351.267 102.902C353.469 105.555 354.767 109.055 355.388 113.176C356.009 117.522 356.065 122.038 355.106 126.779C353.638 133.779 350.421 138.915 345.51 142.246C345.453 142.302 345.397 142.302 345.284 142.471C345.679 142.528 346.018 142.584 346.356 142.641C350.364 143.262 353.807 145.124 356.404 148.793C358.097 151.334 359.113 154.551 359.678 158.22ZM343.703 172.896C346.074 166.913 345.115 159.97 341.615 156.809C339.47 154.833 336.93 154.269 334.051 155.059C330.269 156.075 326.431 157.091 322.649 158.107C322.084 158.276 321.464 158.446 320.843 158.615C320.843 167.929 320.786 177.13 320.786 186.5C321.068 186.443 321.294 186.387 321.52 186.33C324.117 185.653 326.77 184.919 329.366 184.242C331.003 183.79 332.64 183.339 334.277 182.887C338.398 181.589 341.615 178.315 343.703 172.896ZM320.899 117.974C320.899 125.707 320.843 133.44 320.843 141.23C321.012 141.173 321.181 141.173 321.294 141.117C324.907 140.157 328.519 139.198 332.132 138.238C333.995 137.73 335.744 136.601 337.325 134.738C340.373 131.182 341.841 125.707 340.881 121.248C339.865 116.506 336.309 113.853 332.301 114.869C330.834 115.264 329.422 115.659 327.955 115.998C325.81 116.562 323.608 117.183 321.407 117.748C321.294 117.861 321.125 117.917 320.899 117.974Z" fill="#858CA2"/>
<path d="M295.273 109.732L280.371 105.442C286.242 103.862 292.168 102.281 298.152 100.701L313.054 104.991C307.07 106.571 301.2 108.152 295.273 109.732Z" fill="#646B80"/>
<path d="M313.279 93.3629C313.336 93.3065 313.392 93.2501 313.505 93.2501C315.086 92.8549 316.666 92.4034 318.19 92.0082C319.206 91.726 320.279 91.4438 321.295 91.1615C321.351 91.1615 321.351 91.1615 321.408 91.1615C321.464 91.1615 321.521 91.1615 321.577 91.1615L306.675 86.8716C306.619 86.8716 306.562 86.8716 306.562 86.8716C306.562 86.8716 306.562 86.8716 306.506 86.8716H306.449C306.449 86.8716 306.449 86.8716 306.393 86.8716C305.377 87.1538 304.304 87.436 303.288 87.7183C301.708 88.1134 300.184 88.565 298.603 88.9601C298.603 88.9601 298.603 88.9601 298.547 88.9601C298.49 88.9601 298.434 89.0166 298.378 89.0166C298.378 89.0166 298.321 89.0166 298.321 89.073L298.265 89.1294C298.265 89.1294 298.265 89.1295 298.265 89.1859C298.265 89.1859 298.265 89.1859 298.265 89.2423V89.2988V89.3552V89.4117L313.167 93.5887C313.167 93.4758 313.223 93.4194 313.279 93.3629Z" fill="#646B80"/>
<path d="M206.369 113.401C222.143 113.401 234.931 109.055 234.931 103.693C234.931 98.3307 222.143 93.9839 206.369 93.9839C190.594 93.9839 177.807 98.3307 177.807 103.693C177.807 109.055 190.594 113.401 206.369 113.401Z" fill="#646B80"/>
<path d="M234.931 94.0405H177.75V103.749H234.931V94.0405Z" fill="#646B80"/>
<path d="M206.369 103.749C222.144 103.749 234.931 99.4024 234.931 94.0404C234.931 88.6783 222.144 84.3315 206.369 84.3315C190.595 84.3315 177.807 88.6783 177.807 94.0404C177.807 99.4024 190.595 103.749 206.369 103.749Z" fill="#858CA2"/>
<path d="M210.828 97.2013C226.603 97.2013 239.39 92.8545 239.39 87.4925C239.39 82.1305 226.603 77.7837 210.828 77.7837C195.054 77.7837 182.266 82.1305 182.266 87.4925C182.266 92.8545 195.054 97.2013 210.828 97.2013Z" fill="#323546"/>
<path d="M239.447 77.7837H182.266V87.4925H239.447V77.7837Z" fill="#323546"/>
<path d="M210.828 87.4923C226.603 87.4923 239.39 83.1455 239.39 77.7835C239.39 72.4215 226.603 68.0747 210.828 68.0747C195.054 68.0747 182.266 72.4215 182.266 77.7835C182.266 83.1455 195.054 87.4923 210.828 87.4923Z" fill="#858CA2"/>
<path d="M202.304 88.2262C218.079 88.2262 230.866 83.8794 230.866 78.5174C230.866 73.1554 218.079 68.8086 202.304 68.8086C186.53 68.8086 173.742 73.1554 173.742 78.5174C173.742 83.8794 186.53 88.2262 202.304 88.2262Z" fill="#646B80"/>
<path d="M230.866 68.8086H173.686V78.5174H230.866V68.8086Z" fill="#646B80"/>
<path d="M202.304 78.5172C218.079 78.5172 230.866 74.1704 230.866 68.8084C230.866 63.4464 218.079 59.0996 202.304 59.0996C186.53 59.0996 173.742 63.4464 173.742 68.8084C173.742 74.1704 186.53 78.5172 202.304 78.5172Z" fill="#858CA2"/>
<path d="M210.828 76.0333C226.603 76.0333 239.39 71.6866 239.39 66.3245C239.39 60.9625 226.603 56.6157 210.828 56.6157C195.054 56.6157 182.266 60.9625 182.266 66.3245C182.266 71.6866 195.054 76.0333 210.828 76.0333Z" fill="#323546"/>
<path d="M239.447 56.6724H182.266V66.3812H239.447V56.6724Z" fill="#323546"/>
<path d="M210.828 66.381C226.603 66.381 239.39 62.0342 239.39 56.6722C239.39 51.3101 226.603 46.9634 210.828 46.9634C195.054 46.9634 182.266 51.3101 182.266 56.6722C182.266 62.0342 195.054 66.381 210.828 66.381Z" fill="#858CA2"/>
<path d="M514.285 134.23L514.567 210.208L418.157 244.922L417.875 168.945L514.285 134.23Z" fill="#545B70"/>
<path d="M418.158 244.922L405.062 240.067L404.78 164.09L417.876 168.945L418.158 244.922Z" fill="#5B6278"/>
<path d="M417.875 168.945L404.779 164.091L501.19 129.376L514.285 134.23L417.875 168.945Z" fill="#646B80"/>
<path d="M525.575 134.23C525.462 134.174 525.349 134.174 525.236 134.117H525.18C525.123 134.117 525.067 134.117 525.067 134.117C525.011 134.117 524.954 134.117 524.898 134.117C524.841 134.117 524.785 134.117 524.728 134.117C524.672 134.117 524.615 134.117 524.559 134.117C524.503 134.117 524.503 134.117 524.446 134.117C524.39 134.117 524.333 134.117 524.277 134.174C524.22 134.174 524.164 134.174 524.051 134.23H523.995C523.882 134.287 523.769 134.287 523.599 134.343C523.543 134.399 523.43 134.399 523.374 134.456C523.317 134.456 523.261 134.512 523.261 134.512C523.204 134.569 523.148 134.569 523.091 134.625C522.979 134.682 522.922 134.738 522.809 134.795C522.753 134.851 522.696 134.851 522.64 134.907C522.527 134.964 522.414 135.077 522.358 135.133C522.301 135.19 522.245 135.19 522.188 135.246C522.019 135.359 521.906 135.528 521.737 135.641L479.797 180.686L492.893 185.54L534.832 140.496L528.284 138.068L534.832 140.496C534.945 140.326 535.115 140.213 535.284 140.101C535.34 140.044 535.397 140.044 535.453 139.988C535.566 139.931 535.623 139.818 535.735 139.762C535.792 139.705 535.848 139.705 535.905 139.649C536.018 139.592 536.074 139.536 536.187 139.48C536.243 139.423 536.3 139.423 536.356 139.367C536.469 139.31 536.582 139.254 536.751 139.197C536.921 139.141 537.034 139.084 537.203 139.084C537.259 139.084 537.372 139.084 537.429 139.028C537.542 139.028 537.598 139.028 537.711 138.972C537.768 138.972 537.824 138.972 537.88 138.972C537.993 138.972 538.106 138.972 538.163 138.972C538.219 138.972 538.276 138.972 538.276 138.972C538.388 138.972 538.558 139.028 538.671 139.084L525.575 134.23Z" fill="#323546"/>
<path d="M488.321 196.604L478.612 180.234L465.517 175.38L475.225 191.749C475.508 192.201 475.846 192.54 476.241 192.765C476.354 192.822 476.524 192.878 476.637 192.935L489.732 197.789C489.168 197.62 488.716 197.168 488.321 196.604Z" fill="#323546"/>
<path d="M480.644 166.856C480.757 166.856 480.87 166.856 480.983 166.912C481.096 166.912 481.209 166.969 481.322 167.025L468.226 162.171C468.113 162.114 468 162.114 467.887 162.058C467.775 162.058 467.662 162.001 467.549 162.001H467.492C467.379 162.001 467.323 162.001 467.21 162.001C467.097 162.001 466.984 162.001 466.928 162.058C466.871 162.058 466.815 162.058 466.759 162.114C466.646 162.171 466.533 162.171 466.363 162.227C466.307 162.284 466.194 162.284 466.138 162.34C465.968 162.397 465.855 162.509 465.686 162.566C465.46 162.679 465.291 162.848 465.065 163.017C465.009 163.074 464.952 163.074 464.952 163.13C464.783 163.3 464.614 163.469 464.444 163.638C464.444 163.638 464.444 163.638 464.444 163.695C464.388 163.751 464.331 163.808 464.275 163.921C464.162 164.034 464.049 164.203 463.936 164.372C463.88 164.429 463.88 164.485 463.823 164.542L438.14 203.885L451.236 208.739L476.919 169.396C477.032 169.17 477.201 169.001 477.37 168.831C477.427 168.775 477.483 168.719 477.54 168.606C477.709 168.38 477.878 168.211 478.104 168.041C478.161 167.985 478.217 167.985 478.217 167.928C478.387 167.759 478.612 167.646 478.838 167.477C479.064 167.364 479.29 167.251 479.515 167.138C479.685 167.082 479.854 167.025 480.08 166.969C480.193 166.969 480.306 166.912 480.419 166.912C480.532 166.912 480.588 166.912 480.701 166.912C480.588 166.856 480.644 166.856 480.644 166.856Z" fill="#323546"/>
<path d="M447.114 220.537L437.518 205.014L424.423 200.16L434.019 215.682C434.357 216.247 434.809 216.642 435.373 216.868L448.469 221.722C447.904 221.496 447.453 221.101 447.114 220.537Z" fill="#323546"/>
<path d="M427.245 187.289C427.132 187.233 427.019 187.233 426.907 187.177C426.85 187.177 426.737 187.177 426.681 187.12H426.624H426.568C426.455 187.12 426.286 187.12 426.173 187.12C426.116 187.12 426.06 187.12 426.003 187.12C425.947 187.12 425.834 187.177 425.778 187.177C425.665 187.233 425.495 187.233 425.383 187.289C425.326 187.346 425.213 187.346 425.157 187.402C425.044 187.459 424.931 187.515 424.874 187.572C424.818 187.572 424.818 187.628 424.762 187.628C424.592 187.741 424.366 187.854 424.197 188.023C424.141 188.08 424.084 188.08 424.084 188.136C423.915 188.249 423.802 188.362 423.689 188.531C423.633 188.588 423.576 188.644 423.576 188.644C423.576 188.701 423.52 188.701 423.52 188.701C423.35 188.87 423.238 189.039 423.125 189.209L391.571 232.503C391.515 232.56 391.515 232.616 391.458 232.672C391.345 232.842 391.232 233.011 391.119 233.237C391.063 233.293 391.063 233.35 391.007 233.406C391.007 233.463 390.95 233.519 390.95 233.519C390.894 233.576 390.894 233.632 390.837 233.745C390.781 233.914 390.668 234.084 390.611 234.253C390.611 234.309 390.555 234.366 390.555 234.422C390.555 234.479 390.499 234.479 390.499 234.535C390.499 234.592 390.442 234.648 390.442 234.761C390.386 234.93 390.329 235.1 390.273 235.269C390.273 235.325 390.273 235.382 390.216 235.438C390.216 235.495 390.216 235.551 390.16 235.551C390.16 235.608 390.103 235.721 390.103 235.777C390.047 236.003 390.047 236.172 389.99 236.398V236.454C389.99 236.511 389.99 236.567 389.99 236.624C389.99 236.793 389.99 236.906 389.99 237.075C389.99 237.132 389.99 237.245 389.99 237.301C389.99 237.414 389.99 237.527 389.99 237.64C389.99 237.809 390.047 238.035 390.047 238.204C390.047 238.317 390.103 238.43 390.103 238.543C390.16 238.712 390.216 238.882 390.273 239.051C390.329 239.107 390.329 239.22 390.386 239.277C390.499 239.502 390.611 239.728 390.781 239.954C391.119 240.406 391.515 240.688 391.966 240.857L405.062 245.712C404.61 245.542 404.215 245.26 403.876 244.808C403.707 244.583 403.594 244.357 403.481 244.131C403.425 244.075 403.425 243.962 403.368 243.905C403.312 243.736 403.255 243.567 403.199 243.397C403.199 243.284 403.143 243.172 403.143 243.059C403.086 242.889 403.086 242.72 403.086 242.494C403.086 242.381 403.086 242.268 403.086 242.155C403.086 241.93 403.086 241.704 403.086 241.478C403.086 241.422 403.086 241.365 403.086 241.309C403.143 241.027 403.143 240.744 403.255 240.406C403.255 240.349 403.255 240.293 403.312 240.293C403.368 240.011 403.481 239.728 403.594 239.39C403.594 239.333 403.651 239.333 403.651 239.277C403.763 238.994 403.876 238.712 404.046 238.43C404.046 238.374 404.102 238.317 404.102 238.317C404.271 238.035 404.441 237.753 404.61 237.47L436.164 194.176C436.333 193.95 436.502 193.781 436.672 193.555C436.728 193.499 436.785 193.442 436.785 193.442C436.898 193.329 437.067 193.16 437.18 193.047C437.236 192.991 437.293 192.991 437.293 192.934C437.462 192.765 437.631 192.652 437.857 192.539C437.914 192.539 437.914 192.483 437.97 192.483C438.139 192.37 438.365 192.313 438.535 192.2C438.76 192.144 438.986 192.087 439.155 192.031C439.381 191.975 439.607 191.975 439.776 192.031H439.833C440.002 192.031 440.228 192.087 440.397 192.144L427.245 187.289Z" fill="#323546"/>
<path d="M536.752 139.085C538.164 138.577 539.462 139.085 540.196 140.496C541.212 142.585 540.534 145.915 538.672 147.947L493.514 196.435C492.893 197.056 492.272 197.507 491.652 197.733C490.353 198.184 489.112 197.789 488.321 196.547L478.612 180.178L452.986 219.408C452.252 220.537 451.349 221.271 450.389 221.61C450.22 221.666 450.05 221.723 449.881 221.779C448.752 222.005 447.736 221.553 447.115 220.537L437.519 205.014L409.296 243.737C408.562 244.696 407.772 245.374 406.925 245.656C405.74 246.051 404.611 245.825 403.821 244.809C402.466 243.059 402.805 239.786 404.498 237.415L436.052 194.12C436.729 193.161 437.576 192.483 438.423 192.201C438.648 192.145 438.874 192.088 439.043 192.032C440.116 191.862 441.075 192.37 441.696 193.33L451.123 208.627L476.806 169.284C477.54 168.211 478.443 167.421 479.403 167.082C479.572 167.026 479.741 166.97 479.967 166.913C481.096 166.687 482.112 167.195 482.733 168.211L492.95 185.484L534.89 140.44C535.454 139.762 536.075 139.367 536.752 139.085Z" fill="#858CA2"/>
<path d="M117.465 101.773C117.578 101.773 117.691 101.773 117.86 101.773C117.916 101.773 117.973 101.773 118.029 101.773C118.142 101.773 118.199 101.773 118.311 101.83C118.424 101.83 118.481 101.886 118.594 101.886L108.264 98.9508C108.208 98.9508 108.151 98.8944 108.095 98.8944C108.038 98.8944 108.038 98.8944 107.982 98.8944C107.869 98.8944 107.812 98.8379 107.7 98.8379C107.643 98.8379 107.643 98.8379 107.587 98.8379H107.53C107.417 98.8379 107.304 98.8379 107.135 98.8379C107.079 98.8379 107.079 98.8379 107.022 98.8379C106.853 98.8379 106.684 98.8943 106.571 98.9508L65.7598 109.901L76.0895 112.837L116.9 101.886C117.07 101.83 117.239 101.83 117.352 101.773C117.352 101.773 117.408 101.773 117.465 101.773Z" fill="#858CA2"/>
<path d="M116.845 101.886C119.329 101.209 121.361 103.41 121.361 106.741L121.191 198.692C121.191 202.022 119.159 205.296 116.676 205.974L75.8648 216.924C73.3812 217.602 71.3491 215.4 71.3491 212.07L71.5185 120.118C71.5185 116.788 73.5505 113.514 76.0342 112.837L116.845 101.886Z" fill="#858CA2"/>
<path d="M74.9605 214.271C74.9041 214.271 74.7912 214.271 74.6783 214.101C74.3961 213.819 74.0574 213.085 74.0574 212.013L74.2267 120.061C74.2267 117.634 75.7508 115.659 76.7668 115.376L117.578 104.426C117.634 104.426 117.691 104.426 117.747 104.426C117.803 104.426 117.916 104.426 118.029 104.595C118.311 104.877 118.65 105.611 118.65 106.684L118.481 198.635C118.481 201.062 117.013 203.038 115.941 203.264L75.1299 214.214C75.0734 214.271 75.017 214.271 74.9605 214.271Z" fill="#646B80"/>
<path d="M65.7042 109.901C65.6477 109.901 65.5912 109.958 65.5348 109.958C65.4784 109.958 65.4784 110.014 65.4219 110.014C65.309 110.071 65.1961 110.127 65.0832 110.184C65.0268 110.184 64.9704 110.24 64.9139 110.24C64.801 110.296 64.6881 110.353 64.5188 110.466C64.4623 110.466 64.4623 110.522 64.4059 110.522C64.4059 110.522 64.4059 110.522 64.3494 110.522C64.2365 110.579 64.1801 110.635 64.1236 110.692C64.0672 110.748 64.0108 110.804 63.9543 110.804C63.8414 110.861 63.785 110.974 63.6721 111.03C63.6156 111.087 63.5592 111.087 63.5592 111.143C63.3898 111.313 63.2769 111.482 63.1076 111.651C63.0512 111.708 63.0512 111.764 62.9947 111.821C62.8818 111.933 62.7689 112.103 62.7125 112.216C62.7125 112.272 62.656 112.272 62.656 112.329L62.5996 112.385C62.4303 112.611 62.3174 112.837 62.2045 113.062C62.2045 113.119 62.148 113.119 62.148 113.175C62.0916 113.345 61.9787 113.514 61.9222 113.683C61.9222 113.74 61.9222 113.74 61.8658 113.796C61.8658 113.853 61.8093 113.909 61.8093 113.965C61.7529 114.078 61.6964 114.248 61.64 114.361C61.64 114.417 61.5835 114.474 61.5835 114.474C61.5835 114.53 61.5836 114.53 61.5271 114.586C61.4707 114.699 61.4707 114.812 61.4142 114.982C61.4142 115.038 61.3578 115.094 61.3578 115.151C61.3578 115.207 61.3578 115.207 61.3578 115.264C61.3013 115.377 61.3013 115.546 61.2449 115.659C61.2449 115.715 61.2449 115.772 61.1884 115.828V115.885C61.132 116.11 61.132 116.336 61.132 116.562C61.132 116.788 61.132 116.957 61.132 117.183L60.9626 209.134C60.9626 209.247 60.9626 209.36 60.9626 209.473C60.9626 209.586 60.9626 209.699 61.0191 209.812C61.0191 209.925 61.0191 210.094 61.0755 210.207C61.0755 210.376 61.132 210.489 61.132 210.658C61.132 210.771 61.1884 210.884 61.1884 210.997C61.2449 211.166 61.3013 211.279 61.3013 211.392C61.3578 211.505 61.3578 211.618 61.4142 211.731C61.4707 211.844 61.5271 211.957 61.5835 212.126C61.64 212.239 61.6964 212.295 61.7529 212.408C61.8093 212.521 61.9222 212.634 61.9787 212.747C62.0351 212.803 62.0916 212.916 62.148 212.973C62.2609 213.086 62.3173 213.142 62.4302 213.255C62.4867 213.311 62.5431 213.368 62.5996 213.424C62.7125 213.537 62.8254 213.594 62.9383 213.65C62.9947 213.707 63.0512 213.707 63.1076 213.763C63.2769 213.876 63.5027 213.932 63.6721 213.989L74.0018 216.924C73.776 216.868 73.6067 216.811 73.4373 216.698C73.3809 216.642 73.3244 216.642 73.268 216.585C73.1551 216.529 73.0422 216.416 72.9293 216.36C72.8729 216.303 72.8164 216.247 72.76 216.19C72.6471 216.077 72.5906 216.021 72.4777 215.908C72.4213 215.852 72.3648 215.739 72.3084 215.682C72.2519 215.569 72.1391 215.456 72.0826 215.343C72.0262 215.231 71.9697 215.174 71.9133 215.061C71.8568 214.948 71.8004 214.835 71.7439 214.666C71.6875 214.553 71.6875 214.44 71.631 214.327C71.5746 214.215 71.5181 214.045 71.5181 213.932C71.4617 213.819 71.4617 213.707 71.4617 213.594C71.4052 213.424 71.4053 213.311 71.4053 213.142C71.4053 213.029 71.4053 212.86 71.3488 212.747C71.3488 212.521 71.2924 212.352 71.2924 212.126L71.4617 120.175C71.4617 119.949 71.4617 119.779 71.4617 119.554C71.4617 119.328 71.5181 119.102 71.5181 118.876C71.5181 118.82 71.5746 118.707 71.5746 118.651C71.5746 118.481 71.631 118.368 71.6875 118.255C71.6875 118.143 71.7439 118.086 71.7439 117.973C71.8004 117.86 71.8004 117.747 71.8568 117.578C71.8568 117.522 71.9133 117.409 71.9133 117.352C71.9697 117.239 72.0262 117.07 72.0826 116.957C72.1391 116.901 72.1391 116.788 72.1955 116.731C72.252 116.562 72.3648 116.393 72.4213 116.223C72.4213 116.167 72.4777 116.167 72.4777 116.11C72.5906 115.885 72.76 115.659 72.8729 115.433C72.9293 115.377 72.9293 115.32 72.9858 115.264C73.0986 115.151 73.1551 114.982 73.268 114.869C73.3244 114.812 73.3244 114.756 73.3809 114.699C73.4938 114.53 73.6631 114.361 73.8325 114.191C73.8889 114.135 73.9453 114.078 74.0018 114.078C74.1147 114.022 74.1711 113.909 74.284 113.853C74.3405 113.796 74.3969 113.74 74.4534 113.74C74.5098 113.683 74.6227 113.627 74.6791 113.57C74.7356 113.514 74.792 113.514 74.792 113.514C74.9049 113.457 75.0178 113.345 75.1872 113.288C75.2436 113.232 75.3001 113.232 75.3565 113.232C75.4694 113.175 75.5823 113.119 75.6952 113.062C75.8081 113.006 75.8645 113.006 75.9774 112.949L65.7042 109.901Z" fill="#323546"/>
<path d="M99.122 196.547C101.098 196.039 102.678 197.733 102.678 200.386C102.678 203.039 101.098 205.579 99.122 206.143C97.1464 206.651 95.5659 204.958 95.5659 202.305C95.5659 199.652 97.1464 197.055 99.122 196.547Z" fill="#858CA2"/>
<path d="M113.628 156.865C113.74 159.8 112.724 162.397 110.749 164.034C109.902 164.711 108.943 165.162 107.983 165.275C107.193 165.388 106.402 165.275 105.669 164.937C103.975 164.146 103.016 162.171 103.016 159.518V155.905C102.903 156.075 102.79 156.3 102.62 156.526L98.5563 164.203C97.4274 166.235 96.4114 166.912 95.6211 167.025C95.3953 167.082 95.226 167.025 95.0567 167.025C94.21 166.912 93.1939 166.122 93.1939 163.3V157.373L85.7994 171.146C88.396 173.968 92.1214 175.379 96.2985 174.815C99.8546 174.307 103.354 172.331 105.951 169.34C106.29 168.944 106.685 168.775 107.023 168.719C107.418 168.662 107.87 168.775 108.152 169.114C108.773 169.735 108.717 170.807 108.096 171.541C104.878 175.266 100.758 177.637 96.3549 178.258C86.8155 179.613 79.0823 172.162 79.1387 161.776C79.1387 151.333 86.9284 141.737 96.4114 140.439C105.838 139.084 113.571 146.479 113.628 156.865ZM109.112 161.268C110.071 160.477 110.523 159.066 110.467 157.429C110.467 148.793 104.145 142.753 96.3549 143.882C88.5653 144.955 82.1868 152.801 82.1868 161.324C82.1868 163.864 82.7513 166.291 83.8238 168.324L92.065 153.026C92.7988 151.672 93.5891 151.22 94.21 151.164C94.3793 151.164 94.6051 151.164 94.718 151.164C95.734 151.333 96.2985 152.349 96.2985 154.155V161.945L99.9675 155.059C100.476 154.043 101.774 151.559 103.58 151.333C103.806 151.277 103.975 151.333 104.201 151.333C105.443 151.559 106.12 152.857 106.12 154.833V158.953C106.12 160.308 106.515 161.268 107.193 161.606C107.418 161.719 107.701 161.719 107.983 161.719C108.378 161.719 108.773 161.55 109.112 161.268Z" fill="#A1A7BB"/>
<path d="M452.532 68.0746L438.082 63.7847C437.913 63.7282 437.743 63.6153 437.574 63.5024L452.024 67.7924C452.194 67.9053 452.363 68.0182 452.532 68.0746Z" fill="#62666E"/>
<path d="M452.025 67.7924L437.575 63.5025L425.778 54.4146L440.228 58.7045L452.025 67.7924Z" fill="#323546"/>
<path d="M452.871 4.28992C452.984 4.28992 453.04 4.28992 453.153 4.28992C453.209 4.28992 453.266 4.28992 453.266 4.28992C453.322 4.28992 453.435 4.28993 453.492 4.34637C453.548 4.34637 453.605 4.34638 453.717 4.40282L439.267 0.112883C439.211 0.112883 439.211 0.112879 439.154 0.0564328H439.098C439.041 0.0564328 438.928 0.0564465 438.872 0H438.816H438.759C438.646 0 438.59 0 438.477 0H438.42C438.308 0 438.195 0.0564328 438.025 0.0564328L382.901 14.55L397.001 19L452.476 4.34637C452.589 4.28993 452.701 4.28992 452.871 4.28992C452.814 4.34637 452.814 4.34637 452.871 4.28992Z" fill="#323546"/>
<path d="M395.464 69.5419C395.351 69.4855 395.295 69.429 395.182 69.3726C395.125 69.3161 395.069 69.2597 395.012 69.2597C394.956 69.2033 394.843 69.1468 394.787 69.0339C394.73 68.9775 394.674 68.921 394.674 68.8646C394.617 68.8081 394.561 68.6952 394.504 68.6388C394.448 68.5823 394.448 68.4694 394.391 68.413C394.335 68.3001 394.279 68.2437 394.279 68.1308C394.222 68.0743 394.222 67.9614 394.166 67.905C394.109 67.7921 394.109 67.6792 394.053 67.6227C394.053 67.5098 393.996 67.4534 393.996 67.3405C393.996 67.2276 393.94 67.1147 393.94 67.0018C393.94 66.8889 393.94 66.7761 393.94 66.7196C393.94 66.6067 393.94 66.4374 393.94 66.3245L393.996 24.1589C393.996 23.9896 393.996 23.8202 393.996 23.6509C393.996 23.5944 393.996 23.538 393.996 23.4815C393.996 23.3686 394.053 23.2557 394.053 23.0864C394.053 23.03 394.053 22.9735 394.109 22.9171C394.109 22.8042 394.166 22.6913 394.166 22.6348C394.166 22.5784 394.222 22.522 394.222 22.4655C394.222 22.3526 394.279 22.2397 394.335 22.1833C394.335 22.1268 394.391 22.0704 394.391 22.0139C394.448 21.901 394.504 21.7317 394.561 21.6188C394.561 21.6188 394.561 21.5624 394.617 21.5624C394.674 21.393 394.787 21.2237 394.843 21.1108C394.843 21.0543 394.899 21.0544 394.899 20.9979C395.012 20.8286 395.125 20.6592 395.238 20.4899C395.238 20.4899 395.238 20.4334 395.295 20.4334C395.407 20.2641 395.577 20.0947 395.69 19.9818C395.69 19.9254 395.746 19.9254 395.746 19.869C395.859 19.6996 396.028 19.5867 396.198 19.4738L396.254 19.4174C396.423 19.3045 396.536 19.1916 396.706 19.1351C396.875 19.0223 397.044 18.9658 397.214 18.9094C397.27 18.9094 397.327 18.8529 397.383 18.8529L382.933 14.563C382.876 14.563 382.82 14.563 382.82 14.6194H382.763C382.594 14.6759 382.425 14.7323 382.255 14.8452C382.086 14.9581 381.917 15.0146 381.804 15.1275L381.747 15.1839C381.578 15.2968 381.465 15.4097 381.296 15.579C381.296 15.6355 381.239 15.6355 381.239 15.6919C381.126 15.8613 380.957 15.9741 380.844 16.1435V16.2C380.731 16.3693 380.618 16.5386 380.506 16.7079C380.506 16.7079 380.506 16.7644 380.449 16.7644V16.8208C380.393 16.9902 380.28 17.1031 380.223 17.2724V17.3289C380.167 17.4418 380.11 17.6111 380.054 17.724V17.7804C380.054 17.8369 380.054 17.8369 379.998 17.8933C379.941 18.0062 379.941 18.0627 379.885 18.1756V18.232C379.885 18.2885 379.885 18.2885 379.885 18.3449C379.885 18.4578 379.828 18.5707 379.828 18.6271C379.828 18.6836 379.828 18.6836 379.828 18.74V18.7965C379.828 18.9094 379.772 19.0223 379.772 19.1916C379.772 19.2481 379.772 19.2481 379.772 19.3045C379.772 19.3045 379.772 19.3045 379.772 19.3609C379.772 19.5303 379.772 19.6996 379.772 19.869L379.715 62.0345C379.715 62.091 379.715 62.1474 379.715 62.1474C379.715 62.2603 379.715 62.3168 379.715 62.4296C379.715 62.5425 379.715 62.6554 379.715 62.7119C379.715 62.8248 379.772 62.9377 379.772 63.0506C379.772 63.1635 379.828 63.2199 379.828 63.3328C379.828 63.4457 379.885 63.5586 379.941 63.615C379.998 63.6715 379.998 63.7844 380.054 63.8408C380.11 63.9537 380.167 64.0102 380.167 64.123C380.223 64.1795 380.223 64.2924 380.28 64.3488C380.336 64.4617 380.393 64.5182 380.449 64.5746C380.506 64.6311 380.506 64.6875 380.562 64.744C380.618 64.8004 380.675 64.9133 380.788 64.9697C380.844 65.0262 380.901 65.0826 380.957 65.0826C381.014 65.1391 381.126 65.1955 381.239 65.252C381.296 65.3084 381.352 65.3084 381.352 65.3649C381.465 65.4213 381.635 65.4778 381.747 65.5342L396.198 69.8242C396.028 69.7677 395.915 69.7112 395.746 69.6548C395.52 69.6548 395.52 69.5984 395.464 69.5419Z" fill="#323546"/>
<path d="M452.42 4.40307C454.282 3.89505 455.806 5.532 455.806 8.01564L455.75 36.5212V50.1812V64.4622C455.75 66.2685 454.621 67.7361 453.436 68.0748C452.984 68.1877 452.476 68.1312 452.024 67.7925L440.227 58.7046L397.328 69.8246C395.465 70.3326 393.941 68.6957 393.941 66.212L393.997 24.0465C393.997 21.5628 395.521 19.1356 397.384 18.684L452.42 4.40307Z" fill="#646B80"/>
<path d="M441.581 24.9492C444.911 24.1025 447.564 26.9249 447.564 31.3277C447.564 35.7305 444.855 39.964 441.524 40.8107C438.194 41.6574 435.541 38.8351 435.541 34.4323C435.597 30.0859 438.307 25.7959 441.581 24.9492Z" fill="#A1A7BB"/>
<path d="M424.647 29.126C427.977 28.2793 430.63 31.1016 430.63 35.5044C430.63 39.9073 427.921 44.1408 424.59 44.9875C421.26 45.8342 418.607 43.0118 418.607 38.609C418.664 34.2062 421.317 29.9727 424.647 29.126Z" fill="#A1A7BB"/>
<path d="M407.883 33.4727C411.213 32.626 413.866 35.4483 413.866 39.8511C413.866 44.254 411.156 48.4874 407.826 49.3341C404.496 50.1808 401.843 47.3585 401.843 42.9557C401.899 38.5529 404.552 34.3194 407.883 33.4727Z" fill="#A1A7BB"/>
<path d="M283.08 47.1893C283.024 47.1893 282.967 47.1329 282.855 47.1329C282.798 47.1329 282.685 47.1328 282.629 47.0764C282.572 47.0764 282.516 47.0764 282.516 47.0764C282.403 47.0764 282.347 47.0764 282.234 47.0764C282.177 47.0764 282.177 47.0764 282.121 47.0764C282.008 47.0764 281.895 47.1329 281.726 47.1329L277.323 48.2618C278.226 50.0116 278.79 52.2131 278.79 54.7531C278.79 58.2528 277.718 61.6961 276.025 64.5184L278.452 65.478L274.613 73.3805L266.993 71.1791C266.937 71.1791 266.88 71.1226 266.767 71.1226L266.598 71.0662C263.155 69.8808 260.728 65.9296 260.728 60.5671C260.728 53.2291 265.243 46.1733 270.775 44.7057C272.073 44.367 273.315 44.367 274.444 44.7057L283.08 47.1893Z" fill="#323546"/>
<path d="M278.847 47.02C284.379 45.5524 288.894 50.3504 288.838 57.6884C288.838 65.0265 284.322 72.0823 278.79 73.5499C273.259 75.0175 268.743 70.2195 268.743 62.9379C268.799 55.5999 273.315 48.4876 278.847 47.02Z" fill="#858CA2"/>
<path d="M360.131 62.1476C360.074 62.1476 360.018 62.1476 360.018 62.0911C359.961 62.0911 359.905 62.0911 359.905 62.0911C359.849 62.0911 359.849 62.0911 359.792 62.0911C359.736 62.0911 359.679 62.0911 359.623 62.0911H359.566C359.51 62.0911 359.397 62.0911 359.341 62.1476L356.518 62.8814C357.083 64.0103 357.421 65.4215 357.421 67.0584C357.421 69.3163 356.744 71.5177 355.671 73.324L357.252 73.9449L354.825 79.0251L349.914 77.6139C349.857 77.6139 349.801 77.6139 349.801 77.5575L349.688 77.501C347.487 76.7672 345.906 74.1707 345.906 70.7275C345.906 66.0424 348.785 61.4702 352.398 60.5106C353.244 60.2849 354.035 60.2849 354.768 60.5106L360.131 62.1476Z" fill="#646B80"/>
<path d="M357.42 62.0911C360.976 61.1879 363.855 64.236 363.855 68.9211C363.855 73.6062 360.976 78.1783 357.42 79.0815C353.864 79.9846 350.985 76.9365 350.985 72.2515C350.985 67.5664 353.864 62.9942 357.42 62.0911Z" fill="#858CA2"/>
<path d="M147.891 79.8151C147.834 79.8151 147.778 79.8151 147.778 79.7586C147.721 79.7586 147.665 79.7586 147.665 79.7586C147.608 79.7586 147.608 79.7586 147.552 79.7586C147.495 79.7586 147.439 79.7586 147.383 79.7586H147.326C147.27 79.7586 147.157 79.7586 147.1 79.8151L144.278 80.5489C144.842 81.6778 145.181 83.089 145.181 84.7259C145.181 86.9838 144.504 89.1852 143.431 90.9915L145.012 91.6124L142.585 96.6926L137.617 95.2814C137.561 95.2814 137.504 95.2814 137.504 95.225L137.392 95.1685C135.19 94.4347 133.61 91.8382 133.61 88.3949C133.61 83.7099 136.488 79.1377 140.101 78.1781C140.948 77.9523 141.738 77.9523 142.472 78.1781L147.891 79.8151Z" fill="#646B80"/>
<path d="M145.181 79.7029C148.737 78.7998 151.615 81.8479 151.615 86.5329C151.615 91.218 148.737 95.7901 145.181 96.6933C141.624 97.5964 138.746 94.5483 138.746 89.8633C138.689 85.1782 141.568 80.6625 145.181 79.7029Z" fill="#858CA2"/>
<path d="M498.142 87.436C498.085 87.436 498.029 87.3796 497.973 87.3796C497.916 87.3796 497.86 87.3796 497.747 87.3231C497.69 87.3231 497.69 87.3231 497.634 87.3231C497.521 87.3231 497.465 87.3231 497.352 87.3231C497.295 87.3231 497.295 87.3231 497.239 87.3231C497.126 87.3231 497.013 87.3796 496.9 87.3796L492.836 88.4521C493.683 90.089 494.191 92.1211 494.191 94.4354C494.191 97.7093 493.231 100.87 491.65 103.467L493.908 104.37L490.352 111.708L483.296 109.676C483.24 109.676 483.183 109.62 483.127 109.62L482.958 109.563C479.74 108.491 477.539 104.765 477.539 99.8542C477.539 93.0807 481.716 86.5329 486.852 85.1781C488.038 84.8395 489.223 84.8959 490.239 85.1781L498.142 87.436Z" fill="#323546"/>
<path d="M494.246 87.2669C499.382 85.9121 503.503 90.315 503.503 97.0886C503.503 103.862 499.326 110.41 494.189 111.765C489.053 113.119 484.932 108.717 484.932 101.943C484.932 95.1694 489.109 88.6216 494.246 87.2669Z" fill="#858CA2"/>
<rect y="270" width="517" height="90" fill="url(#paint0_linear)"/>
</g>
<defs>
<linearGradient id="paint0_linear" x1="258.5" y1="270" x2="258.5" y2="360" gradientUnits="userSpaceOnUse">
<stop stop-color="#222531" stop-opacity="0"/>
<stop offset="1" stop-color="#222531"/>
</linearGradient>
<clipPath id="clip0">
<rect width="572" height="360" fill="white"/>
</clipPath>
</defs>
</svg>
